<svg width="26.406mm" height="26.406mm" version="1.1" viewBox="0 0 26.406 26.406" xmlns="http://www.w3.org/2000/svg"><g stroke="#1a1a1a" stroke-linecap="round" stroke-linejoin="round"><path d="m17.569 8.8322h-8.7354v8.7354h8.7354zm-1.4769 6.4084c-0.0079 0.16644-0.08147 0.35544-0.22065 0.56689l-0.0279 0.02791c-0.28411 0.28911-0.63486 0.29233-1.0532 0.0093l-1.5937-1.5673-1.4299 1.4536-0.10955 0.16743-0.0279-0.02739c-0.27953 0.28445-0.63081 0.2872-1.0537 0.0088-0.33551-0.32993-0.31144-0.72733 0.07286-1.1927l1.4578-1.4821-1.5658-1.5394c-0.29458-0.40886-0.30707-0.75082-0.03669-1.0258l0.08268-0.08423c0.2658-0.27024 0.59872-0.27297 0.99837-0.0083l1.5937 1.5673 1.5394-1.5658c0.45047-0.2903 0.80152-0.31205 1.0532-0.06459l0.02791 0.02791c0.31808 0.4595 0.34006 0.82888 0.06511 1.1085l-0.19327 0.14004-1.402 1.4262 1.6495 1.6221c0.12349 0.12144 0.18148 0.26506 0.17363 0.4315z" fill="#1a1a1a" fill-rule="evenodd" stroke-width=".2"/><g fill="none" stroke-width=".2"><rect transform="scale(-1)" x="-26.301" y="-26.304" width="8.7354" height="8.7354"/><rect transform="scale(-1)" x="-17.566" y="-26.304" width="8.7354" height="8.7354"/><rect transform="scale(-1)" x="-8.831" y="-26.304" width="8.7354" height="8.7354"/></g><path d="m26.3 17.569h-8.7354v-8.7354h8.7354z" fill="#1a1a1a" fill-rule="evenodd" stroke-width=".2"/><path d="m8.83 17.569h-8.7354v-8.7354h8.7354z" fill="#1a1a1a" fill-rule="evenodd" stroke-width=".2"/><g fill="none" stroke-width=".2"><rect transform="scale(-1)" x="-26.306" y="-8.829" width="8.7354" height="8.7354"/><rect transform="scale(-1)" x="-17.571" y="-8.829" width="8.7354" height="8.7354"/><rect transform="scale(-1)" x="-8.836" y="-8.829" width="8.7354" height="8.7354"/></g></g></svg>
