<svg width="26.406mm" height="26.406mm" version="1.1" viewBox="0 0 26.406 26.406" xmlns="http://www.w3.org/2000/svg"><g stroke="#1a1a1a" stroke-linecap="round" stroke-linejoin="round"><path d="m8.8332 8.8358v8.7354h8.7354v-8.7354zm6.4084 1.4769c0.16644 0.0079 0.35544 0.08147 0.56689 0.22065l0.02791 0.02791c0.28911 0.28411 0.29233 0.63486 0.0093 1.0532l-1.5673 1.5937 1.4536 1.4299 0.16743 0.10955-0.02739 0.0279c0.28445 0.27953 0.2872 0.63081 0.0088 1.0537-0.32993 0.33551-0.72733 0.31144-1.1927-0.07286l-1.4821-1.4578-1.5394 1.5658c-0.40886 0.29458-0.75082 0.30707-1.0258 0.03669l-0.08423-0.08268c-0.27024-0.2658-0.27297-0.59872-0.0083-0.99837l1.5674-1.5937-1.5658-1.5394c-0.2903-0.45047-0.31205-0.80152-0.06459-1.0532l0.02791-0.02791c0.4595-0.31808 0.82888-0.34006 1.1085-0.06511l0.14004 0.19327 1.4262 1.402 1.6221-1.6495c0.12144-0.12349 0.26506-0.18148 0.4315-0.17363z" fill="#1a1a1a" fill-rule="evenodd" stroke-width=".2"/><g fill="none" stroke-width=".2"><rect transform="rotate(90)" x=".104" y="-26.305" width="8.7354" height="8.7354"/><rect transform="rotate(90)" x="8.839" y="-26.305" width="8.7354" height="8.7354"/><rect transform="rotate(90)" x="17.574" y="-26.305" width="8.7354" height="8.7354"/></g><path d="m17.57 0.105v8.7354h-8.7354v-8.7354z" fill="#1a1a1a" fill-rule="evenodd" stroke-width=".2"/><path d="m17.57 17.575v8.7354h-8.7354v-8.7354z" fill="#1a1a1a" fill-rule="evenodd" stroke-width=".2"/><g fill="none" stroke-width=".2"><rect transform="rotate(90)" x=".099001" y="-8.83" width="8.7354" height="8.7354"/><rect transform="rotate(90)" x="8.834" y="-8.83" width="8.7354" height="8.7354"/><rect transform="rotate(90)" x="17.569" y="-8.83" width="8.7354" height="8.7354"/></g></g></svg>
