<svg width="26.406mm" height="26.406mm" version="1.1" viewBox="0 0 26.406 26.406" xmlns="http://www.w3.org/2000/svg"><g fill="none" stroke="#1a1a1a" stroke-linecap="round" stroke-linejoin="round" stroke-width=".2"><rect transform="scale(1,-1)" x=".104" y="-8.838" width="8.7354" height="8.7354"/><rect transform="scale(1,-1)" x="8.839" y="-8.838" width="8.7354" height="8.7354"/><rect transform="scale(1,-1)" x="17.574" y="-8.838" width="8.7354" height="8.7354"/></g><g fill="#1a1a1a" fill-rule="evenodd" stroke="#1a1a1a" stroke-linecap="round" stroke-linejoin="round" stroke-width=".2"><rect transform="scale(1,-1)" x=".104" y="-17.574" width="8.7354" height="8.7354"/><rect transform="scale(1,-1)" x="8.839" y="-17.574" width="8.7354" height="8.7354"/><rect transform="scale(1,-1)" x="17.574" y="-17.574" width="8.7354" height="8.7354"/></g><path d="m13.15 25.682h0.11764q0.5784 0 0.70584-0.74506v-2.196h2.0783q0.90191-0.0784 0.90191-0.78427-0.14705-0.74506-0.74506-0.74506v-0.0392l-0.19606 0.0392h-2.0391v-2.2352q-0.13724-0.74506-0.74506-0.74506h-0.0392q-0.74506 0.14705-0.74506 0.66663v2.3136h-1.9999l-0.23528-0.0392q-0.5882 0-0.74506 0.82348v0.0392q0 0.52938 0.78428 0.70584h2.196v2.2352q0.13725 0.70585 0.70585 0.70585z" stroke-width=".26458" style="font-variant-caps:normal;font-variant-east-asian:normal;font-variant-ligatures:normal;font-variant-numeric:normal"/><g fill="none" stroke="#1a1a1a" stroke-linecap="round" stroke-linejoin="round" stroke-width=".2"><rect x=".105" y="17.571" width="8.7354" height="8.7354"/><rect x="8.84" y="17.571" width="8.7354" height="8.7354"/><rect x="17.575" y="17.571" width="8.7354" height="8.7354"/></g></svg>
