<svg xmlns="http://www.w3.org/2000/svg" xmlns:xlink="http://www.w3.org/1999/xlink" viewBox="0 0 26.406 26.406" height="99.802" width="99.802" xmlns:v="https://vecta.io/nano"><g transform="matrix(0 1 1 0 -79.295031 -29.988849)" fill="none" stroke="#1a1a1a" stroke-width=".2" stroke-linejoin="round"><use xlink:href="#B"/><use xlink:href="#B" x="8.735"/><use xlink:href="#B" x="17.47"/></g><g transform="matrix(0 1 1 0 -88.03043 -29.988848)" fill="#1a1a1a" fill-rule="evenodd" stroke="#1a1a1a" stroke-width=".2" stroke-linejoin="round"><use xlink:href="#B"/><use xlink:href="#B" x="8.735"/><use xlink:href="#B" x="17.47"/></g><path d="M4.499 9.478h-.118q-.578 0-.706.745v2.196H1.598q-.902.078-.902.784.147.745.745.745v.039l.196-.039h2.039v2.235q.137.745.745.745h.039q.745-.147.745-.667v-2.314h2l.235.039q.588 0 .745-.823v-.039q0-.529-.784-.706H5.205v-2.235q-.137-.706-.706-.706z"/><g transform="matrix(0 1 -1 0 105.701 -29.989)" fill="none" stroke="#1a1a1a" stroke-width=".2" stroke-linejoin="round"><use xlink:href="#B"/><use xlink:href="#B" x="8.735"/><use xlink:href="#B" x="17.47"/></g><defs ><path id="B" d="M30.089 96.866h8.735v8.735h-8.735z"/></defs></svg>