<svg width="26.406mm" height="26.406mm" version="1.1" viewBox="0 0 26.406 26.406" xmlns="http://www.w3.org/2000/svg"><g fill="none" stroke="#1a1a1a" stroke-linecap="round" stroke-linejoin="round" stroke-width=".2"><rect transform="rotate(90)" x=".10051" y="-8.835" width="8.7354" height="8.7354"/><rect transform="rotate(90)" x="8.8355" y="-8.835" width="8.7354" height="8.7354"/><rect transform="rotate(90)" x="17.571" y="-8.835" width="8.7354" height="8.7354"/></g><g fill="#1a1a1a" fill-rule="evenodd" stroke="#1a1a1a" stroke-linecap="round" stroke-linejoin="round" stroke-width=".2"><rect transform="rotate(90)" x=".10051" y="-17.57" width="8.7354" height="8.7354"/><rect transform="rotate(90)" x="8.8355" y="-17.57" width="8.7354" height="8.7354"/><rect transform="rotate(90)" x="17.571" y="-17.57" width="8.7354" height="8.7354"/></g><path d="m21.907 9.4795h0.11764q0.5784 0 0.70585 0.74506v2.196h2.0783q0.90192 0.0784 0.90192 0.78428-0.14705 0.74506-0.74506 0.74506v0.0392l-0.19607-0.0392h-2.0391v2.2352q-0.13725 0.74506-0.74506 0.74506h-0.03921q-0.74506-0.14705-0.74506-0.66663v-2.3136h-1.9999l-0.23528 0.0392q-0.5882 0-0.74506-0.82349v-0.0392q0-0.52939 0.78427-0.70585h2.196v-2.2352q0.13725-0.70584 0.70585-0.70584z" stroke-width=".26458" style="font-variant-caps:normal;font-variant-east-asian:normal;font-variant-ligatures:normal;font-variant-numeric:normal"/><g fill="none" stroke="#1a1a1a" stroke-linecap="round" stroke-linejoin="round" stroke-width=".2"><rect transform="rotate(90)" x=".10018" y="-26.306" width="8.7354" height="8.7354"/><rect transform="rotate(90)" x="8.8352" y="-26.306" width="8.7354" height="8.7354"/><rect transform="rotate(90)" x="17.57" y="-26.306" width="8.7354" height="8.7354"/></g></svg>
