<svg width="99.802" height="99.802" viewBox="0 0 26.406 26.406"><g stroke="#1a1a1a" stroke-width=".2" stroke-linejoin="round"><path d="M17.569 8.832H8.834v8.735h8.735zm-1.477 6.408c-.008.166-.081.355-.221.567l-.028.028c-.284.289-.635.292-1.053.009l-1.594-1.567-1.43 1.454-.11.167-.028-.027c-.28.284-.631.287-1.054.009-.336-.33-.311-.727.073-1.193l1.458-1.482-1.566-1.539c-.295-.409-.307-.751-.037-1.026l.083-.084c.266-.27.599-.273.998-.008l1.594 1.567 1.539-1.566c.45-.29.802-.312 1.053-.065l.028.028c.318.46.34.829.065 1.108l-.193.14-1.402 1.426 1.649 1.622c.123.121.181.265.174.431z" fill="#1a1a1a" fill-rule="evenodd"/><g fill="none"><path d="M26.301 26.304h-8.735v-8.735h8.735z"/><path d="M17.566 26.304H8.831v-8.735h8.735z"/><path d="M8.831 26.304H.096v-8.735h8.735z"/></g><path d="M26.3 17.569h-8.735V8.834H26.3zm-17.47 0H.095V8.834H8.83z" fill="#1a1a1a" fill-rule="evenodd"/><g fill="none"><path d="M26.306 8.829h-8.735V.094h8.735z"/><path d="M17.571 8.829H8.836V.094h8.735z"/><path d="M8.836 8.829H.101V.094h8.735z"/></g></g></svg>