<svg width="99.802" height="99.802" viewBox="0 0 26.406 26.406"><g stroke="#1a1a1a" stroke-width=".2" stroke-linejoin="round"><path d="M8.833 8.836v8.735h8.735V8.836zm6.408 1.477c.166.008.355.081.567.221l.028.028c.289.284.292.635.009 1.053l-1.567 1.594 1.454 1.43.167.11-.027.028c.284.28.287.631.009 1.054-.33.336-.727.311-1.193-.073l-1.482-1.458-1.539 1.566c-.409.295-.751.307-1.026.037l-.084-.083c-.27-.266-.273-.599-.008-.998l1.567-1.594-1.566-1.539c-.29-.45-.312-.802-.065-1.053l.028-.028c.46-.318.829-.34 1.108-.065l.14.193 1.426 1.402 1.622-1.649c.121-.123.265-.181.431-.174z" fill="#1a1a1a" fill-rule="evenodd"/><g transform="rotate(90)" fill="none"><path d="M.104-26.305h8.735v8.735H.104z"/><path d="M8.839-26.305h8.735v8.735H8.839z"/><path d="M17.574-26.305h8.735v8.735h-8.735z"/></g><path d="M17.57.105V8.84H8.835V.105zm0 17.47v8.735H8.835v-8.735z" fill="#1a1a1a" fill-rule="evenodd"/><g transform="rotate(90)" fill="none"><path d="M.099-8.83h8.735v8.735H.099z"/><path d="M8.834-8.83h8.735v8.735H8.834z"/><path d="M17.569-8.83h8.735v8.735h-8.735z"/></g></g></svg>