<svg width="99.802" height="99.802" viewBox="0 0 26.406 26.406"><g stroke="#1a1a1a"><g stroke-width=".2" stroke-linejoin="round" transform="rotate(90)" fill="none"><path d="M.101-8.835h8.735V-.1H.101z"/><path d="M8.835-8.835h8.735V-.1H8.835z"/><path d="M17.571-8.835h8.735V-.1h-8.735z"/></g><g stroke-width=".2" stroke-linejoin="round" transform="rotate(90)" fill="#1a1a1a" fill-rule="evenodd"><path d="M.101-17.57h8.735v8.735H.101z"/><path d="M8.835-17.57h8.735v8.735H8.835z"/><path d="M17.571-17.57h8.735v8.735h-8.735z"/></g></g><path d="M21.907 9.48h.118q.578 0 .706.745v2.196h2.078q.902.078.902.784-.147.745-.745.745v.039l-.196-.039H22.73v2.235q-.137.745-.745.745h-.039q-.745-.147-.745-.667V13.95h-2l-.235.039q-.588 0-.745-.823v-.039q0-.529.784-.706h2.196v-2.235q.137-.706.706-.706z"/><g stroke-width=".2" stroke-linejoin="round" transform="rotate(90)" fill="none" stroke="#1a1a1a"><path d="M.1-26.306h8.735v8.735H.1z"/><path d="M8.835-26.306h8.735v8.735H8.835z"/><path d="M17.57-26.306h8.735v8.735H17.57z"/></g></svg>