<svg xmlns="http://www.w3.org/2000/svg" width="99.802" height="99.802" viewBox="0 0 26.406 26.406" xmlns:v="https://vecta.io/nano"><g stroke="#1a1a1a"><g fill="none" stroke-linejoin="round" stroke-width=".2"><path d="M.104 8.838h8.735V.103H.104z"/><path d="M8.839 8.838h8.735V.103H8.839z"/><path d="M17.574 8.838h8.735V.103h-8.735z"/></g><g fill="#1a1a1a" fill-rule="evenodd" stroke-linejoin="round" stroke-width=".2"><path d="M.104 17.574h8.735V8.839H.104z"/><path d="M8.839 17.574h8.735V8.839H8.839z"/><path d="M17.574 17.574h8.735V8.839h-8.735z"/></g></g><path d="M13.15 25.682h.118q.578 0 .706-.745v-2.196h2.078q.902-.078.902-.784-.147-.745-.745-.745v-.039l-.196.039h-2.039v-2.235q-.137-.745-.745-.745h-.039q-.745.147-.745.667v2.314h-2l-.235-.039q-.588 0-.745.823v.039q0 .529.784.706h2.196v2.235q.137.706.706.706z"/><g fill="none" stroke="#1a1a1a" stroke-linejoin="round" stroke-width=".2"><path d="M.105 17.571H8.84v8.735H.105z"/><path d="M8.84 17.571h8.735v8.735H8.84z"/><path d="M17.575 17.571h8.735v8.735h-8.735z"/></g></svg>