<svg xmlns="http://www.w3.org/2000/svg" width="99.802" height="99.802" viewBox="0 0 26.406 26.406" xmlns:v="https://vecta.io/nano"><g stroke="#1a1a1a"><g fill="none" stroke-linejoin="round" stroke-width=".2"><path d="M8.835.1v8.735H.1V.1z"/><path d="M8.835 8.84v8.735H.1V8.84z"/><path d="M8.835 17.57v8.735H.1V17.57z"/></g><g fill="#1a1a1a" fill-rule="evenodd" stroke-linejoin="round" stroke-width=".2"><path d="M17.571.1v8.735H8.836V.1z"/><path d="M17.571 8.84v8.735H8.836V8.84z"/><path d="M17.571 17.57v8.735H8.836V17.57z"/></g></g><path d="M21.907 9.48h.118q.578 0 .706.745v2.196h2.078q.902.078.902.784-.147.745-.745.745v.039l-.196-.039H22.73v2.235q-.137.745-.745.745h-.039q-.745-.147-.745-.667V13.95h-2l-.235.039q-.588 0-.745-.823v-.039q0-.529.784-.706h2.196v-2.235q.137-.706.706-.706z"/><g fill="none" stroke="#1a1a1a" stroke-linejoin="round" stroke-width=".2"><path d="M26.306.1v8.735h-8.735V.1z"/><path d="M26.306 8.84v8.735h-8.735V8.84z"/><path d="M26.306 17.57v8.735h-8.735V17.57z"/></g></svg>