<svg xmlns="http://www.w3.org/2000/svg" width="99.802" height="99.802" viewBox="0 0 26.406 26.406" xmlns:v="https://vecta.io/nano"><g stroke="#1a1a1a"><g fill="none" stroke-linejoin="round" stroke-width=".2"><path d="M.1 17.571h8.735v8.735H.1z"/><path d="M8.835 17.571h8.735v8.735H8.835z"/><path d="M17.57 17.571h8.735v8.735H17.57z"/></g><g fill="#1a1a1a" fill-rule="evenodd" stroke-linejoin="round" stroke-width=".2"><path d="M.1 8.835h8.735v8.735H.1z"/><path d="M8.835 8.835h8.735v8.735H8.835z"/><path d="M17.57 8.835h8.735v8.735H17.57z"/></g></g><path d="M13.144.721h.118q.578 0 .706.745v2.196h2.078q.902.078.902.784-.147.745-.745.745v.039l-.196-.039h-2.039v2.235q-.137.745-.745.745h-.039q-.745-.147-.745-.667V5.191h-2l-.235.039q-.588 0-.745-.823v-.039q0-.529.784-.706h2.196V1.427q.137-.706.706-.706z"/><g fill="none" stroke="#1a1a1a" stroke-linejoin="round" stroke-width=".2"><path d="M.1.1h8.735v8.735H.1z"/><path d="M8.835.1h8.735v8.735H8.835z"/><path d="M17.57.1h8.735v8.735H17.57z"/></g></svg>